<svg xmlns="http://www.w3.org/2000/svg" width="100%" viewBox="0 0 165 50"><g fill="none" fill-rule="evenodd"><path d="M164 44.988c0 2.77-2.11 5.012-4.723 5.012H4.73C2.12 50 0 47.757 0 44.988V5.018C0 2.252 2.12 0 4.73 0h154.546C161.89 0 164 2.25 164 5.02v39.968z" fill="#000"/><path d="M37.15 24.162c-.035-3.974 3.254-5.907 3.405-5.997-1.863-2.717-4.75-3.088-5.766-3.118-2.427-.255-4.78 1.452-6.015 1.452-1.26 0-3.163-1.428-5.213-1.386-2.64.04-5.108 1.568-6.462 3.94-2.794 4.838-.71 11.947 1.967 15.857 1.34 1.916 2.904 4.054 4.952 3.98 2.003-.084 2.75-1.28 5.17-1.28 2.395 0 3.098 1.28 5.187 1.23 2.15-.034 3.505-1.923 4.797-3.855 1.547-2.195 2.17-4.356 2.193-4.467-.05-.018-4.176-1.592-4.217-6.356zm-3.946-11.687c1.078-1.348 1.816-3.18 1.61-5.042-1.56.07-3.51 1.08-4.633 2.397-.993 1.162-1.88 3.066-1.65 4.856 1.75.13 3.55-.884 4.674-2.21zM66.15 38.614h-2.802l-1.534-4.82h-5.33l-1.463 4.82h-2.725l5.283-16.41h3.262l5.31 16.41zm-4.798-6.842l-1.387-4.285c-.147-.438-.422-1.47-.828-3.092h-.05c-.16.698-.42 1.73-.778 3.092l-1.364 4.285h4.406zm18.382.78c0 2.013-.544 3.603-1.632 4.77-.974 1.04-2.184 1.56-3.628 1.56-1.558 0-2.678-.56-3.36-1.68h-.05v6.233h-2.628V30.677c0-1.266-.033-2.564-.097-3.896h2.31l.147 1.877h.05c.876-1.413 2.207-2.12 3.992-2.12 1.395 0 2.56.553 3.493 1.656.934 1.105 1.4 2.558 1.4 4.36zm-2.68.096c0-1.15-.258-2.1-.778-2.848-.568-.78-1.332-1.17-2.29-1.17-.647 0-1.237.218-1.763.646-.528.43-.873.995-1.035 1.693-.08.324-.122.59-.122.8v1.973c0 .86.264 1.587.792 2.18.528.593 1.213.89 2.057.89.99 0 1.76-.383 2.312-1.145.552-.763.828-1.77.828-3.02zm16.289-.096c0 2.013-.544 3.603-1.632 4.77-.972 1.04-2.182 1.56-3.626 1.56-1.56 0-2.678-.56-3.36-1.68h-.048v6.233h-2.63V30.677c0-1.266-.032-2.564-.097-3.896h2.31l.148 1.877h.05c.875-1.413 2.206-2.12 3.992-2.12 1.395 0 2.56.553 3.495 1.656.93 1.105 1.398 2.558 1.398 4.36zm-2.678.096c0-1.15-.26-2.1-.78-2.848-.57-.78-1.33-1.17-2.288-1.17-.65 0-1.238.218-1.766.646-.527.43-.87.995-1.032 1.693-.08.324-.122.59-.122.8v1.973c0 .86.264 1.587.79 2.18.527.592 1.212.89 2.058.89.99 0 1.76-.383 2.312-1.145.553-.763.83-1.77.83-3.02zm17.895 1.364c0 1.396-.485 2.532-1.458 3.408-1.07.958-2.558 1.437-4.47 1.437-1.766 0-3.18-.34-4.253-1.022l.608-2.192a7.205 7.205 0 0 0 3.8 1.05c.99 0 1.76-.226 2.315-.672.55-.446.826-1.045.826-1.792 0-.666-.228-1.227-.683-1.682-.452-.455-1.208-.878-2.264-1.27-2.873-1.07-4.308-2.64-4.308-4.704 0-1.35.503-2.455 1.51-3.316 1.004-.862 2.343-1.292 4.018-1.292 1.493 0 2.734.26 3.724.78l-.657 2.142c-.925-.503-1.97-.755-3.14-.755-.926 0-1.648.23-2.166.683-.438.406-.658.9-.658 1.486 0 .648.25 1.184.754 1.606.438.39 1.233.81 2.387 1.266 1.412.57 2.45 1.233 3.116 1.995.665.76.996 1.71.996 2.845zm8.69-5.258h-2.896V34.5c0 1.46.51 2.19 1.534 2.19.47 0 .86-.04 1.167-.122l.073 1.997c-.518.193-1.2.29-2.044.29-1.04 0-1.85-.316-2.436-.95-.583-.633-.876-1.696-.876-3.19v-5.963h-1.727V26.78h1.727v-2.17l2.582-.78v2.947h2.897v1.974zm13.076 3.846c0 1.82-.52 3.312-1.56 4.48-1.088 1.202-2.533 1.802-4.334 1.802-1.737 0-3.12-.576-4.15-1.728-1.03-1.152-1.546-2.606-1.546-4.358 0-1.833.53-3.335 1.594-4.503 1.062-1.17 2.495-1.753 4.296-1.753 1.737 0 3.134.575 4.188 1.728 1.01 1.12 1.512 2.563 1.512 4.332zm-2.728.085c0-1.09-.233-2.027-.705-2.807-.55-.945-1.34-1.416-2.36-1.416-1.057 0-1.86.472-2.41 1.416-.473.78-.706 1.732-.706 2.857 0 1.09.233 2.027.705 2.806.568.946 1.363 1.417 2.387 1.417 1.003 0 1.79-.48 2.36-1.44.484-.796.728-1.742.728-2.832zm11.272-3.592a4.566 4.566 0 0 0-.828-.072c-.924 0-1.64.35-2.143 1.05-.438.615-.658 1.395-.658 2.335v6.21h-2.628l.025-8.107c0-1.364-.034-2.606-.1-3.725h2.29l.096 2.263H135c.277-.778.714-1.404 1.314-1.874.585-.423 1.218-.634 1.9-.634.243 0 .462.018.657.048v2.507zm11.758 3.045c0 .47-.03.868-.096 1.192h-7.887c.03 1.17.412 2.063 1.145 2.68.664.55 1.524.827 2.58.827 1.167 0 2.232-.186 3.19-.56l.412 1.825c-1.12.49-2.44.73-3.966.73-1.835 0-3.275-.54-4.324-1.618-1.045-1.08-1.57-2.527-1.57-4.345 0-1.785.488-3.27 1.463-4.456 1.02-1.265 2.4-1.898 4.137-1.898 1.706 0 2.997.633 3.873 1.898.694 1.005 1.043 2.248 1.043 3.724zm-2.506-.682c.017-.78-.155-1.453-.51-2.02-.456-.732-1.155-1.097-2.096-1.097-.86 0-1.56.355-2.092 1.07-.438.57-.698 1.25-.78 2.045h5.478zM53.545 8.735c.28-.168.596-.308.95-.424a4.067 4.067 0 0 1 1.25-.173c.775 0 1.384.184 1.83.55.446.366.67.86.67 1.483 0 .495-.15.91-.448 1.245-.298.335-.68.558-1.143.67v.035c.255.04.497.11.724.21a1.918 1.918 0 0 1 1.005.987c.098.223.15.47.15.743 0 .446-.09.82-.27 1.124-.18.303-.415.55-.706.742-.29.192-.616.33-.975.412a4.754 4.754 0 0 1-1.076.126c-.384 0-.762-.04-1.137-.12a3.5 3.5 0 0 1-1.042-.394l.323-.993c.21.104.476.204.803.3.327.096.657.143.993.143.55 0 .975-.123 1.273-.37.298-.248.448-.578.448-.993 0-.28-.06-.508-.18-.688-.12-.18-.276-.32-.467-.426a2.03 2.03 0 0 0-.64-.215 4.157 4.157 0 0 0-.698-.06h-.54v-.984h.54c.246 0 .476-.03.688-.096.21-.063.394-.153.55-.27.155-.115.277-.253.365-.412.086-.16.13-.34.13-.54 0-.358-.128-.64-.383-.842-.255-.204-.598-.306-1.028-.306-.295 0-.59.048-.886.143-.295.096-.558.2-.79.31l-.283-.918zm10.273 7.595l-.095-.67h-.036c-.39.535-.955.803-1.697.803a1.9 1.9 0 0 1-.718-.132 1.748 1.748 0 0 1-.562-.358 1.586 1.586 0 0 1-.372-.54 1.735 1.735 0 0 1-.13-.68c0-.726.294-1.27.885-1.633.59-.364 1.427-.545 2.512-.545v-.107c0-.766-.402-1.148-1.206-1.148-.574 0-1.08.144-1.517.43l-.262-.848c.535-.335 1.2-.502 1.995-.502 1.52 0 2.28.8 2.28 2.404v2.14c0 .6.03 1.06.085 1.388h-1.162zm-.18-2.893c-.72 0-1.258.09-1.61.275-.353.184-.53.483-.53.898 0 .303.083.53.25.68a.894.894 0 0 0 .63.228 1.317 1.317 0 0 0 .874-.335c.116-.104.21-.23.28-.377a1.05 1.05 0 0 0 .107-.473v-.896zm7.49-2.919v1.064H68.71v4.75h-1.29v-5.814m11.1 2.835c0 .462-.065.885-.192 1.268-.128.384-.305.71-.533.98a2.406 2.406 0 0 1-.812.635c-.316.15-.664.228-1.047.228-.766 0-1.316-.275-1.65-.825h-.026V18.7h-1.292v-6.268a50.637 50.637 0 0 0-.047-1.915h1.136l.073.92h.024c.43-.692 1.084-1.04 1.962-1.04.34 0 .66.072.95.215.29.144.544.345.76.604.216.26.385.57.508.934.123.363.185.764.185 1.203zm-1.315.048c0-.286-.035-.55-.103-.794a1.844 1.844 0 0 0-.298-.622 1.45 1.45 0 0 0-.48-.407 1.322 1.322 0 0 0-1.166-.03c-.177.08-.33.188-.46.324-.132.136-.237.3-.317.492-.08.19-.12.394-.12.61v.97c0 .214.033.414.102.597a1.341 1.341 0 0 0 .729.795c.172.076.36.113.568.113.487 0 .866-.185 1.137-.556.27-.37.41-.87.41-1.49zm8.255-2.883l-1.474 4.03c-.35.958-.69 1.74-1.022 2.35-.33.612-.647 1.056-.95 1.336-.447.398-.922.642-1.425.728l-.31-1.087c.333-.088.652-.26.955-.514.303-.255.546-.573.73-.956.065-.127.095-.215.095-.263 0-.047-.024-.138-.07-.274l-2.107-5.347h1.423l1.1 3.24c.058.153.113.324.17.515.055.19.115.404.18.634h.023c.04-.13.083-.29.13-.485.048-.195.112-.42.19-.676l.983-3.23h1.376v-.002zm2.236 2.416h.596c.438 0 .778-.08 1.016-.24.238-.16.36-.355.36-.586 0-.24-.102-.43-.306-.574-.203-.143-.485-.216-.844-.216-.232 0-.465.04-.698.114-.235.076-.452.17-.652.28l-.334-.835a3.563 3.563 0 0 1 1-.376c.33-.067.662-.1.997-.1.266 0 .532.024.798.076.265.052.503.14.71.263.207.122.38.284.508.483.132.2.197.447.197.743 0 .184-.035.345-.108.484-.07.14-.167.263-.286.37-.12.108-.254.196-.4.263-.147.068-.3.118-.448.15v.036c.19.024.376.072.556.143.18.072.34.166.484.282.142.115.258.255.347.418.085.164.128.35.128.556 0 .342-.08.63-.25.86-.166.23-.38.414-.64.55-.26.135-.545.232-.856.293a4.781 4.781 0 0 1-1.971-.024 3.371 3.371 0 0 1-.946-.353l.336-.85c.207.112.443.206.71.28.268.077.54.115.82.115.437 0 .775-.085 1.01-.257.233-.17.352-.384.352-.64a.714.714 0 0 0-.12-.424.855.855 0 0 0-.333-.28 1.648 1.648 0 0 0-.504-.15c-.19-.028-.4-.04-.62-.04h-.61v-.816zm6.9-2.416v2.057c0 .47-.007.894-.025 1.268-.016.374-.034.77-.06 1.183l.026.024c.15-.304.3-.6.447-.892.15-.29.3-.588.45-.89l1.436-2.752h1.672v5.812h-1.22v-2.056c0-.43.01-.86.03-1.29.02-.433.04-.867.065-1.306h-.06c-.135.36-.27.67-.407.933-.135.262-.27.533-.405.813-.247.48-.493.957-.737 1.436-.243.477-.5.968-.77 1.47h-1.674v-5.812h1.232zm10.764 0v1.064h-1.77v4.75h-1.27v-4.75h-1.757v-1.064m11.387 2.632c0 .11-.005.217-.012.316-.007.1-.02.19-.036.27h-3.875c.017.55.19.975.52 1.273.33.297.768.448 1.31.448.566 0 1.088-.09 1.567-.275l.202.898c-.55.24-1.2.36-1.95.36-.453 0-.86-.07-1.22-.21a2.558 2.558 0 0 1-.91-.592 2.618 2.618 0 0 1-.567-.92 3.535 3.535 0 0 1-.196-1.208c0-.447.065-.86.195-1.238a3 3 0 0 1 .555-.987c.24-.28.53-.498.867-.658.34-.16.717-.24 1.132-.24.366 0 .697.066 1 .198.298.13.553.318.763.562.212.243.373.535.484.873.115.338.17.715.17 1.13zm-1.233-.335c0-.455-.108-.823-.328-1.106-.22-.283-.537-.426-.95-.426-.378 0-.694.143-.957.43-.263.288-.414.654-.455 1.1h2.69zm6.438-2.249c.232-.04.525-.07.884-.096a15.79 15.79 0 0 1 1.1-.036c.238 0 .508.015.807.042.298.027.586.09.854.19.274.1.5.25.683.45.184.2.278.47.278.813a1.133 1.133 0 0 1-.353.836c-.11.104-.232.19-.37.257-.14.067-.285.118-.438.15l.012.035c.42.07.765.223 1.028.455.263.23.394.55.394.956 0 .406-.113.73-.334.97a2.097 2.097 0 0 1-.826.537c-.328.12-.672.197-1.036.23-.36.03-.686.047-.973.047a17 17 0 0 1-.94-.025 30.341 30.341 0 0 1-.77-.05v-5.764zm1.243 2.32h.657c.2 0 .39-.013.57-.04.18-.028.335-.073.47-.132a.796.796 0 0 0 .32-.24c.074-.1.113-.22.113-.364a.62.62 0 0 0-.33-.58c-.22-.123-.564-.184-1.034-.184-.135 0-.253.003-.354.012-.1.007-.236.02-.412.036v1.493zm0 2.572c.16.016.294.027.4.036.108.008.233.012.378.012.177 0 .354-.01.538-.036.182-.023.35-.07.503-.137a.921.921 0 0 0 .364-.273.713.713 0 0 0 .14-.458c0-.333-.15-.562-.443-.69-.296-.126-.693-.19-1.197-.19h-.682v1.736z" fill="#FFF"/></g></svg>