<svg xmlns="http://www.w3.org/2000/svg" width="100%" viewBox="0 0 165 50"><title>ru_badge_web_generic</title><defs><linearGradient x1="91.28%" y1="4.839%" x2="-37.815%" y2="71.968%" id="a"><stop stop-color="#00A0FF" offset="0%"/><stop stop-color="#00A1FF" offset=".657%"/><stop stop-color="#00BEFF" offset="26.01%"/><stop stop-color="#00D2FF" offset="51.22%"/><stop stop-color="#00DFFF" offset="76.04%"/><stop stop-color="#00E3FF" offset="100%"/></linearGradient><linearGradient x1="107.399%" y1="49.428%" x2="-130.994%" y2="49.428%" id="b"><stop stop-color="#FFE000" offset="0%"/><stop stop-color="#FFBD00" offset="40.87%"/><stop stop-color="#FFA500" offset="77.54%"/><stop stop-color="#FF9C00" offset="100%"/></linearGradient><linearGradient x1="86.189%" y1="17.815%" x2="-50.088%" y2="194.393%" id="c"><stop stop-color="#FF3A44" offset="0%"/><stop stop-color="#C31162" offset="100%"/></linearGradient><linearGradient x1="-18.778%" y1="-54.527%" x2="42.075%" y2="24.69%" id="d"><stop stop-color="#32A071" offset="0%"/><stop stop-color="#2DA771" offset="6.85%"/><stop stop-color="#15CF74" offset="47.62%"/><stop stop-color="#06E775" offset="80.09%"/><stop stop-color="#00F076" offset="100%"/></linearGradient></defs><g fill="none" fill-rule="evenodd"><path d="M6.074 50C2.674 50 0 47.25 0 43.75V6.25C0 2.875 2.673 0 6.074 0h151.852c3.4 0 6.074 2.75 6.074 6.25v37.5c0 3.375-2.794 6.25-6.074 6.25H6.074z" fill="#000"/><path d="M82.972 27.483c-2.794 0-5.224 2.065-5.224 5.102a5.185 5.185 0 0 0 5.224 5.224c2.915 0 5.224-2.188 5.224-5.225 0-3.037-2.31-5.102-5.224-5.102zm0 8.26c-1.58 0-2.916-1.336-2.916-3.158 0-1.822 1.337-3.158 2.916-3.158 1.58 0 2.915 1.214 2.915 3.158 0 1.822-1.336 3.16-2.915 3.16zm-11.298-8.26c-2.915 0-5.224 2.187-5.224 5.224a5.186 5.186 0 0 0 5.224 5.223c2.916 0 5.224-2.186 5.224-5.223 0-3.16-2.43-5.224-5.224-5.224zm0 8.26c-1.58 0-2.915-1.336-2.915-3.158 0-1.822 1.335-3.158 2.914-3.158 1.58 0 2.916 1.214 2.916 3.158 0 1.822-1.337 3.16-2.916 3.16zm-13.484-6.68v2.186h5.223c-.12 1.214-.607 2.186-1.214 2.793-.73.73-1.945 1.58-4.01 1.58-3.28 0-5.71-2.552-5.71-5.832s2.55-5.83 5.71-5.83c1.7 0 3.037.73 4.01 1.58l1.578-1.58c-1.337-1.215-3.037-2.187-5.467-2.187-4.372 0-8.138 3.645-8.138 8.018 0 4.374 3.766 8.02 8.14 8.02 2.43 0 4.13-.73 5.587-2.31 1.457-1.457 1.943-3.522 1.943-5.1 0-.487 0-.973-.122-1.338h-7.53zm55.03 1.7c-.485-1.215-1.7-3.28-4.373-3.28-2.672 0-4.86 2.065-4.86 5.224 0 2.915 2.188 5.223 5.103 5.223 2.31 0 3.766-1.457 4.252-2.308l-1.7-1.215c-.608.85-1.337 1.458-2.552 1.458-1.214 0-1.943-.486-2.55-1.58l6.924-2.915-.243-.607zm-7.045 1.7c0-1.943 1.58-3.036 2.672-3.036.85 0 1.7.486 1.944 1.093l-4.615 1.944zm-5.588 4.98h2.308V22.26h-2.308v15.184zm-3.766-8.867c-.607-.607-1.58-1.215-2.793-1.215-2.55 0-4.98 2.31-4.98 5.225 0 2.916 2.307 5.102 4.98 5.102 1.214 0 2.186-.607 2.672-1.214h.12v.728c0 1.945-1.093 3.04-2.793 3.04-1.337 0-2.308-.973-2.55-1.824l-1.945.85c.607 1.337 2.065 3.038 4.616 3.038 2.673 0 4.86-1.58 4.86-5.345v-9.234H96.82v.85zm-2.55 7.168c-1.58 0-2.916-1.337-2.916-3.16 0-1.82 1.336-3.157 2.916-3.157 1.58 0 2.794 1.336 2.794 3.158 0 1.822-1.215 3.16-2.794 3.16zm29.64-13.485h-5.466v15.184h2.31v-5.71h3.157c2.552 0 4.982-1.82 4.982-4.737 0-2.916-2.55-4.738-4.98-4.738zm0 7.288h-3.28v-5.224h3.28c1.702 0 2.674 1.458 2.674 2.552 0 1.336-.972 2.672-2.673 2.672zm14.093-2.187c-1.7 0-3.402.73-4.01 2.31l2.066.85c.485-.85 1.214-1.093 2.064-1.093 1.215 0 2.31.73 2.43 1.943v.122c-.364-.243-1.336-.608-2.308-.608-2.187 0-4.373 1.215-4.373 3.402 0 2.065 1.822 3.4 3.766 3.4 1.578 0 2.307-.727 2.914-1.456h.122v1.214h2.186v-5.83c-.364-2.673-2.308-4.253-4.86-4.253zm-.364 8.384c-.73 0-1.824-.365-1.824-1.337 0-1.214 1.337-1.58 2.43-1.58.972 0 1.458.244 2.065.487-.12 1.458-1.335 2.43-2.67 2.43zm12.876-8.018l-2.552 6.56h-.12l-2.674-6.56h-2.43l4.01 9.233-2.31 5.1h2.31l6.317-14.334h-2.55zm-20.41 9.718h2.31V22.26h-2.31v15.184z" fill="#FFF"/><path d="M.73.607c-.366.365-.61.972-.61 1.7v26.85c0 .727.244 1.335.61 1.7l.12.12 15.064-15.063v-.243L.73.608z" fill="url(#a)" transform="translate(12.148 9.504)"/><path d="M20.895 21.016l-4.98-4.98v-.365l4.98-4.98.12.122 5.954 3.4c1.7.973 1.7 2.552 0 3.524l-6.075 3.28z" fill="url(#b)" transform="translate(12.148 9.504)"/><path d="M21.016 20.895l-5.102-5.102L.73 30.978c.606.607 1.457.607 2.55.12l17.736-10.203" fill="url(#c)" transform="translate(12.148 9.504)"/><path d="M21.016 10.69L3.28.607C2.187 0 1.336.12.73.73l15.184 15.063 5.102-5.103z" fill="url(#d)" transform="translate(12.148 9.504)"/><g fill="#000"><path d="M33.043 30.277L15.428 40.24c-.972.606-1.822.484-2.43 0l-.12.12.12.12c.608.487 1.458.61 2.43 0l17.615-10.203z" opacity=".2"/><path d="M12.877 40.24c-.364-.366-.607-.973-.607-1.702v.12c0 .73.243 1.338.607 1.702v-.12z" opacity=".12"/></g><path d="M39.117 26.876l-6.074 3.4.12.123 5.954-3.403c.85-.486 1.215-1.093 1.215-1.7 0 .607-.486 1.093-1.215 1.58z" fill="#000" opacity=".12"/><path d="M15.428 10.233l23.69 13.484c.728.486 1.214.972 1.214 1.58 0-.608-.365-1.215-1.215-1.7L15.427 10.11c-1.7-.97-3.036-.12-3.036 1.824v.12c-.12-1.943 1.337-2.793 3.038-1.82z" fill="#FFF" opacity=".25"/><path d="M53.926 12.883c.246 0 .456-.028.63-.085.175-.057.318-.137.43-.238a.892.892 0 0 0 .246-.366c.05-.142.077-.3.077-.47 0-.153-.03-.298-.09-.437a.963.963 0 0 0-.266-.363 1.338 1.338 0 0 0-.456-.248 2.044 2.044 0 0 0-.657-.094c-.19 0-.37.027-.536.08-.165.054-.31.128-.432.224a1.02 1.02 0 0 0-.288.347.965.965 0 0 0-.104.45h-1.346c0-.34.072-.643.217-.91.145-.27.34-.5.588-.687.247-.19.535-.333.862-.433.327-.1.674-.15 1.04-.15.428 0 .815.048 1.162.142.347.094.643.234.886.42.244.184.433.415.566.69.134.276.2.596.2.96 0 .177-.027.348-.082.51-.056.165-.136.32-.24.463a2.054 2.054 0 0 1-.382.393c-.15.118-.32.22-.513.305.434.15.766.376.996.68.23.305.344.683.344 1.135 0 .363-.073.686-.22.97-.145.282-.347.52-.607.714-.26.194-.57.342-.93.443a4.31 4.31 0 0 1-1.18.152c-.227 0-.455-.02-.682-.057a3.347 3.347 0 0 1-.657-.176c-.21-.08-.404-.18-.584-.3a2.016 2.016 0 0 1-.895-1.726h1.346c0 .165.035.32.106.463.07.144.172.27.302.38.13.108.285.193.464.255.18.063.38.094.6.094.254 0 .478-.03.674-.094a1.52 1.52 0 0 0 .496-.256c.135-.108.24-.237.31-.384.07-.148.107-.307.107-.478 0-.438-.128-.755-.382-.953-.255-.198-.627-.296-1.12-.296h-.912v-1.067h.913zm9.793 2.685h-3.012l-.63 1.81h-1.404l2.936-7.773h1.212l2.942 7.773h-1.41l-.635-1.81zm-2.633-1.09h2.253l-1.127-3.223-1.126 3.224zm11.864-3.784h-3.587v6.684h-1.345V9.605h4.933v1.09zm3.81 3.796v2.888h-1.352V9.605h2.974c.452 0 .853.062 1.204.184.35.122.647.294.89.514.24.22.425.483.55.785.127.302.19.63.19.987 0 .377-.063.715-.19 1.014-.125.3-.31.553-.55.76-.243.206-.54.364-.89.474-.35.11-.752.166-1.204.166H76.76zm0-1.084h1.622c.26 0 .483-.032.67-.096a1.23 1.23 0 0 0 .462-.272c.12-.118.21-.257.264-.42.055-.16.083-.338.083-.53a1.67 1.67 0 0 0-.082-.524 1.194 1.194 0 0 0-.264-.445 1.257 1.257 0 0 0-.462-.31 1.735 1.735 0 0 0-.67-.116H76.76v2.712zm9.77.262l1.56-4.063h1.5l-2.675 6.374c-.09.202-.186.394-.29.576-.102.18-.23.342-.383.48a1.67 1.67 0 0 1-.55.33 2.177 2.177 0 0 1-.785.124c-.042 0-.09 0-.144-.003-.053 0-.107-.004-.16-.008-.053-.004-.102-.008-.147-.01-.044-.005-.08-.008-.104-.012l.01-1.068a.73.73 0 0 0 .094.01c.04.005.084.007.128.01l.13.002h.102c.15 0 .275-.02.374-.062a.76.76 0 0 0 .254-.165c.07-.07.126-.15.17-.24.045-.09.09-.188.13-.29l.162-.39-2.66-5.66h1.474l1.81 4.063zm7.93-.785c.245 0 .455-.028.63-.085.174-.057.317-.137.43-.238a.91.91 0 0 0 .245-.366c.05-.142.077-.3.077-.47 0-.153-.03-.298-.088-.437a.988.988 0 0 0-.267-.363 1.338 1.338 0 0 0-.456-.248 2.033 2.033 0 0 0-.656-.094c-.192 0-.37.027-.536.08-.166.054-.31.128-.433.224s-.22.212-.288.347a.965.965 0 0 0-.104.45h-1.345c0-.34.072-.643.216-.91.144-.27.34-.5.587-.687.248-.19.536-.333.863-.433.328-.1.675-.15 1.04-.15.428 0 .815.048 1.162.142.347.094.643.234.886.42.245.184.434.415.567.69.134.276.2.596.2.96 0 .177-.027.348-.082.51-.055.165-.135.32-.24.463a2.024 2.024 0 0 1-.382.393c-.15.118-.32.22-.513.305.435.15.766.376.996.68.23.305.344.683.344 1.135 0 .363-.073.686-.22.97a2.04 2.04 0 0 1-.607.714c-.26.194-.57.342-.93.443a4.3 4.3 0 0 1-1.18.152 4.25 4.25 0 0 1-.682-.057 3.356 3.356 0 0 1-.656-.176c-.21-.08-.405-.18-.584-.3a2.081 2.081 0 0 1-.468-.434 2.065 2.065 0 0 1-.312-.57 2.153 2.153 0 0 1-.115-.722H92.9c0 .165.036.32.107.463.072.144.172.27.302.38.13.108.284.193.464.255.18.063.38.094.6.094.253 0 .477-.03.673-.094a1.51 1.51 0 0 0 .496-.256 1.084 1.084 0 0 0 .417-.862c0-.438-.128-.755-.382-.953-.254-.198-.627-.296-1.118-.296h-.913v-1.067h.913zm10.203-3.278h1.35v7.773h-1.35v-5.536l-3.41 5.536H99.9V9.605h1.352v5.542l3.41-5.542zm9.766 1.09h-2.425v6.683h-1.34v-6.684h-2.402v-1.09h6.166v1.09zm6.898 3.213h-3.192V16.3h3.73v1.078h-5.08V9.605h5.044v1.09h-3.694v2.145h3.192v1.068zm13.206 3.47h-1.346v-3.454h-3.475v3.454h-1.35V9.605h1.35v3.235h3.475V9.605h1.346v7.773zm7.38-1.81H138.9l-.63 1.81h-1.404l2.936-7.773h1.212l2.942 7.773h-1.41l-.635-1.81zm-2.633-1.09h2.254l-1.126-3.223-1.127 3.224z" fill="#FFF"/></g></svg>