<svg width="48" height="48" xmlns="http://www.w3.org/2000/svg" xmlns:xlink="http://www.w3.org/1999/xlink" viewBox="0 0 48 48">
  <defs>
    <style>
      .cls-1, .cls-4 {
        fill: #fff;
      }

      .cls-2 {
        clip-path: url(#clip-path);
      }

      .cls-3 {
        fill: url(#linear-gradient);
      }

      .cls-4 {
        fill-rule: evenodd;
      }
    </style>
    <clipPath id="clip-path">
      <path id="back" class="cls-1" d="M0,24A24,24,0,1,1,24,48,24,24,0,0,1,0,24Z" transform="translate(-203 -4184)"/>
    </clipPath>
    <linearGradient id="linear-gradient" x1="0.745" y1="0.059" x2="0.239" y2="0.969" gradientUnits="objectBoundingBox">
      <stop offset="0" stop-color="#4845a2"/>
      <stop offset="0.189" stop-color="#8744a1"/>
      <stop offset="0.3" stop-color="#a844a1"/>
      <stop offset="0.351" stop-color="#ab429a"/>
      <stop offset="0.423" stop-color="#b43c88"/>
      <stop offset="0.508" stop-color="#c33269"/>
      <stop offset="0.602" stop-color="#d7243f"/>
      <stop offset="0.604" stop-color="#d7243e"/>
      <stop offset="0.877" stop-color="#f9a326"/>
      <stop offset="1" stop-color="#f9dd26"/>
    </linearGradient>
  </defs>
  <g id="insta" transform="translate(203 4184)">
    <g id="Mask_Group_48" data-name="Mask Group 48" class="cls-2">
      <path id="Path_1677" data-name="Path 1677" class="cls-3" d="M50.525,11.254V36.746C50.525,42.953,45.23,48,38.679,48H11.846C5.313,48,0,42.97,0,36.746V11.254C0,5.03,5.295,0,11.846,0H38.679c6.533,0,11.846,5.03,11.846,11.254Z" transform="translate(-204 -4184)"/>
    </g>
    <path id="Shape" class="cls-4" d="M23.535,10.733c-3.476,0-3.913.015-5.278.077a9.393,9.393,0,0,0-3.107.595,6.548,6.548,0,0,0-3.745,3.743,9.35,9.35,0,0,0-.595,3.107c-.061,1.365-.077,1.8-.077,5.278s.015,3.911.077,5.277a9.407,9.407,0,0,0,.595,3.107,6.55,6.55,0,0,0,3.743,3.745,9.4,9.4,0,0,0,3.107.595c1.365.062,1.8.077,5.277.077s3.912-.015,5.277-.077a9.407,9.407,0,0,0,3.108-.595,6.558,6.558,0,0,0,3.743-3.745,9.488,9.488,0,0,0,.595-3.107c.061-1.365.077-1.8.077-5.277s-.016-3.913-.077-5.278a9.483,9.483,0,0,0-.595-3.107,6.549,6.549,0,0,0-3.744-3.744,9.423,9.423,0,0,0-3.109-.595c-1.365-.062-1.8-.077-5.277-.077ZM22.386,13.04h1.148c3.418,0,3.823.012,5.172.074a7.087,7.087,0,0,1,2.377.441,4.241,4.241,0,0,1,2.429,2.429,7.072,7.072,0,0,1,.441,2.376c.061,1.349.075,1.755.075,5.171s-.013,3.821-.075,5.171a7.079,7.079,0,0,1-.441,2.376,4.245,4.245,0,0,1-2.429,2.428,7.061,7.061,0,0,1-2.377.441c-1.349.061-1.755.075-5.172.075s-3.823-.013-5.172-.075a7.1,7.1,0,0,1-2.377-.441,4.241,4.241,0,0,1-2.43-2.429,7.072,7.072,0,0,1-.441-2.376c-.061-1.349-.074-1.755-.074-5.173s.012-3.821.074-5.171a7.087,7.087,0,0,1,.441-2.377,4.242,4.242,0,0,1,2.43-2.43,7.071,7.071,0,0,1,2.377-.441c1.181-.053,1.638-.069,4.024-.072Zm7.981,2.125A1.536,1.536,0,1,0,31.9,16.7a1.536,1.536,0,0,0-1.536-1.535ZM23.535,16.96a6.573,6.573,0,1,0,6.572,6.573,6.574,6.574,0,0,0-6.572-6.573Zm0,2.307a4.267,4.267,0,1,1-4.267,4.267,4.267,4.267,0,0,1,4.267-4.267Z" transform="translate(-202.733 -4183.733)"/>
  </g>
</svg>
