<svg width="200" height="52" xmlns="http://www.w3.org/2000/svg" xmlns:xlink="http://www.w3.org/1999/xlink" viewBox="0 0 200 51.282">
  <defs>
    <style>
      .cls-1 {
        fill: url(#linear-gradient);
      }

      .cls-2 {
        fill: url(#linear-gradient-2);
      }

      .cls-3 {
        fill: #45413d;
      }
    </style>
    <linearGradient id="linear-gradient" x1="0.5" y1="1" x2="0.5" gradientUnits="objectBoundingBox">
      <stop offset="0" stop-color="#e89b00"/>
      <stop offset="0.29" stop-color="#eea600"/>
      <stop offset="1" stop-color="#fbbe00"/>
    </linearGradient>
    <linearGradient id="linear-gradient-2" x1="0.5" y1="1" x2="0.5" y2="0" xlink:href="#linear-gradient"/>
  </defs>
  <g id="logo" transform="translate(-55 -89.609)">
    <g id="Group_1159" data-name="Group 1159" transform="translate(55 89.61)">
      <path id="Path_503" data-name="Path 503" class="cls-1" d="M145.16,219.661v5.482l10.392,4.755L181.921,216.1a24.5,24.5,0,0,0-1.637-4.494l-24.742,12.8Z" transform="translate(-128.431 -196.509)"/>
      <path id="Path_504" data-name="Path 504" class="cls-2" d="M137.121,217.918,122.5,211.037V194.925l14.617,6.886,22.3-11.562a27.584,27.584,0,0,0-22.3-11.03C122.133,179.219,110,190.7,110,204.86S122.147,230.5,137.121,230.5s27.121-11.478,27.121-25.641c0-.373,0-.746-.029-1.119Z" transform="translate(-110 -179.219)"/>
    </g>
    <path id="Path_505" data-name="Path 505" class="cls-3" d="M252.716,231.38a11.709,11.709,0,0,1-4.729-.888,9.735,9.735,0,0,1-3.424-2.442,10.217,10.217,0,0,1-2.067-3.619,13.78,13.78,0,0,1-.69-4.383,12.538,12.538,0,0,1,1.524-6.257,8.848,8.848,0,0,1,4.129-3.877,13.185,13.185,0,0,1,5.238-1.141,10.938,10.938,0,0,1,6.524,1.892,8.562,8.562,0,0,1,3.514,4.463,14.254,14.254,0,0,1,.9,4.92,13.794,13.794,0,0,1-.691,4.383,10.238,10.238,0,0,1-2.067,3.619,9.745,9.745,0,0,1-3.424,2.442A11.811,11.811,0,0,1,252.716,231.38Zm0-4.92a3.362,3.362,0,0,0,2.157-.555,4.739,4.739,0,0,0,1.429-1.581,7.179,7.179,0,0,0,.781-2.118,9.252,9.252,0,0,0,.2-2.167,7.914,7.914,0,0,0-.476-3.108,6.19,6.19,0,0,0-1.233-2,4.317,4.317,0,0,0-1.524-1.061,2.533,2.533,0,0,0-1.343-.213,3.617,3.617,0,0,0-2.971,1.239,5.7,5.7,0,0,0-.852,1.332,8.117,8.117,0,0,0-.476,1.385,7.486,7.486,0,0,0-.2,1.306q-.038.617-.038,1.11a10.757,10.757,0,0,0,.29,2.558,6.377,6.377,0,0,0,.852,2.038,4.154,4.154,0,0,0,1.429,1.332,3.889,3.889,0,0,0,1.976.5Z" transform="translate(-124.04 -106.037)"/>
    <path id="Path_506" data-name="Path 506" class="cls-3" d="M294.17,231.419V209.66h18.967v21.759h-6.191V214.633h-6.581v16.781Z" transform="translate(-151.47 -106.533)"/>
    <path id="Path_507" data-name="Path 507" class="cls-3" d="M340.43,231.4v-4.734h1.3a3.137,3.137,0,0,0,3.043-1.563,8.207,8.207,0,0,0,.833-3.486q.219-2.345.219-7.993v-4h16.452v21.759h-6.191V214.515h-4.286v1.368q.033,2.966-.143,5.049a29.355,29.355,0,0,1-.476,3.521,13.218,13.218,0,0,1-.691,2.331,8.714,8.714,0,0,1-.781,1.483,6.4,6.4,0,0,1-2.857,2.393,10.422,10.422,0,0,1-4.038.733Z" transform="translate(-175.701 -106.516)"/>
    <path id="Path_508" data-name="Path 508" class="cls-3" d="M391.19,231.419l8.771-21.759h6.124l8.7,21.759h-6.486l-1.481-3.717h-7.686l-1.486,3.717Zm9.348-8.211h4.848l-2.429-7.332Z" transform="translate(-202.29 -106.533)"/>
    <path id="Path_509" data-name="Path 509" class="cls-3" d="M450.886,231.391l.362-7.887a25.1,25.1,0,0,1-4.348.444q-4.057,0-6.071-1.581a6.585,6.585,0,0,1-2.409-4.512,17.144,17.144,0,0,1-.11-2.02v-6.217h6.162v6.621c0,.249.029.5.052.737a2.238,2.238,0,0,0,.976,1.776,4.092,4.092,0,0,0,2.281.573,17.275,17.275,0,0,0,1.776-.1,10.554,10.554,0,0,0,1.667-.293V209.61h6.19v21.759Z" transform="translate(-226.972 -106.505)"/>
    <path id="Path_510" data-name="Path 510" class="cls-3" d="M487.975,231.6v-4.627h1.6a4.937,4.937,0,0,0,2.01-.324,2.925,2.925,0,0,0,1.252-1.6L483.88,209.64h6.776l5.238,9.68q.143-.262.4-.888t.652-1.563q.4-.946.8-1.972t.8-2.069q.4-1.044.69-1.843t.509-1.332h6.1q-.724,2.052-1.4,3.814t-1.286,3.29q-1.2,3.064-2.448,5.6t-2.381,4.441a17.979,17.979,0,0,1-1.357,2,7.28,7.28,0,0,1-1.614,1.514,7.2,7.2,0,0,1-2.1.964,10.33,10.33,0,0,1-2.824.342Z" transform="translate(-250.842 -106.522)"/>
  </g>
</svg>
