<svg xmlns="http://www.w3.org/2000/svg" xmlns:xlink="http://www.w3.org/1999/xlink" viewBox="0 0 167 42.82">
  <defs>
    <style>
      .cls-1 {
        fill: url(#linear-gradient);
      }

      .cls-2 {
        fill: url(#linear-gradient-2);
      }

      .cls-3 {
        fill: #fff;
      }
    </style>
    <linearGradient id="linear-gradient" x1="0.5" y1="1" x2="0.5" gradientUnits="objectBoundingBox">
      <stop offset="0" stop-color="#e89b00"/>
      <stop offset="0.29" stop-color="#eea600"/>
      <stop offset="1" stop-color="#fbbe00"/>
    </linearGradient>
    <linearGradient id="linear-gradient-2" x1="0.5" y1="1" x2="0.5" y2="0" xlink:href="#linear-gradient"/>
  </defs>
  <g id="logo_02" transform="translate(-55 -89.609)">
    <g id="Group_1159" data-name="Group 1159" transform="translate(55 89.61)">
      <path id="Path_503" data-name="Path 503" class="cls-1" d="M145.16,218.333v4.578l8.677,3.971,22.018-11.519a20.459,20.459,0,0,0-1.367-3.753L153.829,222.3Z" transform="translate(-131.191 -199.001)"/>
      <path id="Path_504" data-name="Path 504" class="cls-2" d="M132.646,211.533l-12.205-5.746V192.334l12.205,5.75,18.617-9.654a23.033,23.033,0,0,0-18.617-9.21c-12.515,0-22.646,9.584-22.646,21.41s10.143,21.41,22.646,21.41,22.646-9.584,22.646-21.41c0-.311,0-.623-.024-.934Z" transform="translate(-110 -179.219)"/>
    </g>
    <path id="Path_505" data-name="Path 505" class="cls-3" d="M250.915,227.649a9.777,9.777,0,0,1-3.948-.742,8.128,8.128,0,0,1-2.859-2.039,8.532,8.532,0,0,1-1.726-3.022,11.505,11.505,0,0,1-.577-3.66,10.47,10.47,0,0,1,1.272-5.224,7.388,7.388,0,0,1,3.447-3.237,11.01,11.01,0,0,1,4.374-.953,9.133,9.133,0,0,1,5.447,1.58,7.149,7.149,0,0,1,2.934,3.726,11.9,11.9,0,0,1,.755,4.108,11.518,11.518,0,0,1-.577,3.66,8.549,8.549,0,0,1-1.726,3.022,8.137,8.137,0,0,1-2.859,2.039A9.862,9.862,0,0,1,250.915,227.649Zm0-4.108a2.807,2.807,0,0,0,1.8-.464,3.957,3.957,0,0,0,1.193-1.32,5.994,5.994,0,0,0,.652-1.769,7.726,7.726,0,0,0,.167-1.809,6.609,6.609,0,0,0-.4-2.6,5.169,5.169,0,0,0-1.03-1.672,3.6,3.6,0,0,0-1.272-.886,2.115,2.115,0,0,0-1.121-.178,3.02,3.02,0,0,0-2.481,1.035,4.762,4.762,0,0,0-.712,1.112,6.777,6.777,0,0,0-.4,1.157,6.249,6.249,0,0,0-.167,1.09q-.032.515-.032.927a8.983,8.983,0,0,0,.243,2.136,5.324,5.324,0,0,0,.712,1.7,3.468,3.468,0,0,0,1.193,1.112,3.248,3.248,0,0,0,1.65.419Z" transform="translate(-134.396 -108.202)"/>
    <path id="Path_506" data-name="Path 506" class="cls-3" d="M294.17,227.829V209.66h15.837v18.169h-5.169V213.813h-5.5v14.012Z" transform="translate(-165.94 -108.763)"/>
    <path id="Path_507" data-name="Path 507" class="cls-3" d="M340.43,227.81v-3.953h1.089a2.619,2.619,0,0,0,2.541-1.305,6.853,6.853,0,0,0,.7-2.911q.183-1.958.183-6.674V209.63h13.738V227.8h-5.169v-14.09h-3.579v1.142q.028,2.477-.119,4.216a24.513,24.513,0,0,1-.4,2.94,11.037,11.037,0,0,1-.577,1.947,7.276,7.276,0,0,1-.652,1.238,5.345,5.345,0,0,1-2.386,2,8.7,8.7,0,0,1-3.372.612Z" transform="translate(-193.806 -108.744)"/>
    <path id="Path_508" data-name="Path 508" class="cls-3" d="M391.19,227.829l7.324-18.169h5.113l7.26,18.169h-5.416l-1.237-3.1h-6.418l-1.241,3.1ZM399,220.973h4.048l-2.028-6.122Z" transform="translate(-224.384 -108.763)"/>
    <path id="Path_509" data-name="Path 509" class="cls-3" d="M448.811,227.8l.3-6.585a20.951,20.951,0,0,1-3.63.371,8.13,8.13,0,0,1-5.07-1.32A5.5,5.5,0,0,1,438.4,216.5a14.319,14.319,0,0,1-.091-1.687v-5.191h5.145v5.528c0,.208.024.415.044.615a1.868,1.868,0,0,0,.815,1.483,3.416,3.416,0,0,0,1.9.478,14.429,14.429,0,0,0,1.483-.082,8.813,8.813,0,0,0,1.392-.245V209.61h5.169v18.169Z" transform="translate(-252.767 -108.732)"/>
    <path id="Path_510" data-name="Path 510" class="cls-3" d="M487.3,227.979v-3.864h1.332a4.123,4.123,0,0,0,1.678-.271,2.442,2.442,0,0,0,1.046-1.335l-7.475-12.87h5.658l4.374,8.083q.119-.219.334-.742t.545-1.305q.334-.79.664-1.646t.664-1.728q.334-.871.577-1.539t.425-1.112h5.1q-.6,1.713-1.165,3.185t-1.074,2.748q-1,2.558-2.044,4.679t-1.988,3.708a15.018,15.018,0,0,1-1.133,1.672,6.079,6.079,0,0,1-1.348,1.264,6.013,6.013,0,0,1-1.753.8,8.625,8.625,0,0,1-2.358.286Z" transform="translate(-280.218 -108.751)"/>
  </g>
</svg>
