<svg width="48" height="48" id="ok" xmlns="http://www.w3.org/2000/svg" viewBox="0 0 48 48">
  <defs>
    <style>
      .cls-1 {
        fill: #ec760d;
      }

      .cls-1, .cls-2 {
        fill-rule: evenodd;
      }

      .cls-2 {
        fill: #fff;
      }
    </style>
  </defs>
  <path id="back" class="cls-1" d="M0,24A24,24,0,1,1,24,48,24,24,0,0,1,0,24Z"/>
  <path id="Shape" class="cls-2" d="M22.257,14.611a2.2,2.2,0,1,1-2.277,2.2,2.241,2.241,0,0,1,2.277-2.2Zm0,7.5a5.412,5.412,0,0,1-5.5-5.307,5.5,5.5,0,0,1,11,0A5.411,5.411,0,0,1,22.257,22.116ZM24.5,26.449l3.074,2.968a1.516,1.516,0,0,1,0,2.2,1.651,1.651,0,0,1-2.277,0L22.271,28.7l-3.02,2.916a1.654,1.654,0,0,1-2.279,0,1.518,1.518,0,0,1,0-2.2l3.075-2.968a10.527,10.527,0,0,1-3.193-1.277,1.524,1.524,0,0,1-.5-2.145,1.643,1.643,0,0,1,2.221-.489,7.2,7.2,0,0,0,7.4,0,1.644,1.644,0,0,1,2.222.489,1.524,1.524,0,0,1-.505,2.145A10.511,10.511,0,0,1,24.5,26.449Z" transform="translate(1.9 2.214)"/>
</svg>
