<svg id="smartphone" xmlns="http://www.w3.org/2000/svg" viewBox="0 0 91.251 91.251">
  <defs>
    <style>
      .cls-1 {
        fill: #26a300;
      }
    </style>
  </defs>
  <g id="Group_3208" data-name="Group 3208">
    <g id="Group_3207" data-name="Group 3207">
      <path id="Path_2514" data-name="Path 2514" d="M83.231,21.565H59.171V8.02A8.029,8.029,0,0,0,51.15,0H8.02A8.029,8.029,0,0,0,0,8.02V83.231a8.029,8.029,0,0,0,8.02,8.02H51.15a8.029,8.029,0,0,0,8.02-8.02V68.12L68.3,58.992H83.231a8.029,8.029,0,0,0,8.02-8.02V29.585A8.029,8.029,0,0,0,83.231,21.565ZM5.347,8.02A2.676,2.676,0,0,1,8.02,5.347H51.15A2.676,2.676,0,0,1,53.824,8.02v2.673H5.347ZM53.824,83.231A2.676,2.676,0,0,1,51.15,85.9H8.02a2.676,2.676,0,0,1-2.673-2.673V80.558H53.824Zm0-16.218v8.2H5.347V16.04H53.824v5.525H51.15a8.029,8.029,0,0,0-8.02,8.02V50.972a8.029,8.029,0,0,0,8.02,8.02h2.673ZM85.9,50.972a2.676,2.676,0,0,1-2.673,2.673H67.191a2.673,2.673,0,0,0-1.89.783l-6.13,6.13V56.32h0A2.673,2.673,0,0,0,56.5,53.646H51.15a2.676,2.676,0,0,1-2.673-2.673V29.585a2.676,2.676,0,0,1,2.673-2.673h32.08A2.676,2.676,0,0,1,85.9,29.585Z"/>
    </g>
  </g>
  <g id="Group_3210" data-name="Group 3210" transform="translate(56.497 32.259)">
    <g id="Group_3209" data-name="Group 3209">
      <path id="Path_2515" data-name="Path 2515" class="cls-1" d="M337.6,181.783a2.673,2.673,0,0,0-3.781,0l-8.8,8.8-3.456-3.456a2.673,2.673,0,1,0-3.781,3.781l5.347,5.347a2.673,2.673,0,0,0,3.781,0L337.6,185.564A2.673,2.673,0,0,0,337.6,181.783Z" transform="translate(-316.999 -181)"/>
    </g>
  </g>
</svg>
