<svg width="48" height="48" id="vk" xmlns="http://www.w3.org/2000/svg" viewBox="0 0 48 48">
  <defs>
    <style>
      .cls-1 {
        fill: #416b9e;
      }

      .cls-1, .cls-2 {
        fill-rule: evenodd;
      }

      .cls-2 {
        fill: #fff;
      }
    </style>
  </defs>
  <path id="back" class="cls-1" d="M0,24A24,24,0,1,1,24,48,24,24,0,0,1,0,24Z"/>
  <path id="Shape" class="cls-2" d="M23.277,28.469a1.145,1.145,0,0,0,.61-.262.947.947,0,0,0,.183-.576s-.025-1.759.807-2.019,1.873,1.7,2.991,2.454a2.147,2.147,0,0,0,1.485.444l2.987-.041s1.562-.094.821-1.3a9.858,9.858,0,0,0-2.22-2.522c-1.873-1.706-1.622-1.43.633-4.381,1.374-1.8,1.923-2.894,1.751-3.363-.163-.449-1.173-.33-1.173-.33l-3.362.02a.777.777,0,0,0-.434.075.933.933,0,0,0-.3.354A18.921,18.921,0,0,1,26.817,19.6c-1.5,2.495-2.1,2.627-2.34,2.472-.57-.362-.428-1.451-.428-2.225,0-2.419.374-3.427-.727-3.688A5.845,5.845,0,0,0,21.752,16a7.4,7.4,0,0,0-2.79.28c-.383.184-.678.594-.5.617a1.519,1.519,0,0,1,.992.49,3.135,3.135,0,0,1,.332,1.493s.2,2.847-.463,3.2c-.453.243-1.074-.252-2.409-2.516a20.878,20.878,0,0,1-1.2-2.441.983.983,0,0,0-.278-.368,1.391,1.391,0,0,0-.516-.2l-3.195.02s-.48.013-.656.218c-.156.181-.012.558-.012.558s2.5,5.744,5.334,8.64a7.752,7.752,0,0,0,5.546,2.48Z" transform="translate(1.857 2)"/>
</svg>
